<?xml version="1.0" encoding="UTF-8" standalone="no"?>
<svg
   xmlns:dc="http://purl.org/dc/elements/1.1/"
   xmlns:cc="http://creativecommons.org/ns#"
   xmlns:rdf="http://www.w3.org/1999/02/22-rdf-syntax-ns#"
   xmlns:svg="http://www.w3.org/2000/svg"
   xmlns="http://www.w3.org/2000/svg"
   xmlns:sodipodi="http://sodipodi.sourceforge.net/DTD/sodipodi-0.dtd"
   xmlns:inkscape="http://www.inkscape.org/namespaces/inkscape"
   viewBox="0 0 845.33331 492"
   height="492"
   width="845.33331"
   xml:space="preserve"
   id="svg2"
   version="1.1"
   sodipodi:docname="etudes.svg"
   inkscape:version="0.92.1 r15371"><sodipodi:namedview
     pagecolor="#ffffff"
     bordercolor="#666666"
     borderopacity="1"
     objecttolerance="10"
     gridtolerance="10"
     guidetolerance="10"
     inkscape:pageopacity="0"
     inkscape:pageshadow="2"
     inkscape:window-width="1366"
     inkscape:window-height="690"
     id="namedview13"
     showgrid="false"
     inkscape:zoom="0.37500001"
     inkscape:cx="20"
     inkscape:cy="246"
     inkscape:window-x="0"
     inkscape:window-y="49"
     inkscape:window-maximized="1"
     inkscape:current-layer="g10" /><metadata
     id="metadata8"><rdf:RDF><cc:Work
         rdf:about=""><dc:format>image/svg+xml</dc:format><dc:type
           rdf:resource="http://purl.org/dc/dcmitype/StillImage" /></cc:Work></rdf:RDF></metadata><defs
     id="defs6"><clipPath
       id="clipPath20"
       clipPathUnits="userSpaceOnUse"><path
         id="path18"
         d="M 0,3681.66 H 6340 V 1.66016 H 0 Z" /></clipPath></defs><g
     transform="matrix(1.3333333,0,0,-1.3333333,0,492)"
     id="g10"><g
       transform="scale(0.1)"
       id="g12"
       style="fill:#000000;fill-opacity:1;stroke:#ffffff;stroke-opacity:1;stroke-width:105.00000263;stroke-miterlimit:4;stroke-dasharray:none"><g
         id="g14"
         style="fill:#000000;fill-opacity:1;stroke:#ffffff;stroke-opacity:1;stroke-width:105.00000263;stroke-miterlimit:4;stroke-dasharray:none"><g
           clip-path="url(#clipPath20)"
           id="g16"
           style="fill:#000000;fill-opacity:1;stroke:#ffffff;stroke-opacity:1;stroke-width:105.00000263;stroke-miterlimit:4;stroke-dasharray:none"><path
             id="path22"
             style="fill:#000000;fill-opacity:1;fill-rule:nonzero;stroke:#ffffff;stroke-opacity:1;stroke-width:105.00000263;stroke-miterlimit:4;stroke-dasharray:none"
             d="M 3167.23,1212.91 1277.62,1794.52 V 823.148 c 0,-449.058 846.29,-813.16753 1890.19,-813.16753 1043.83,0 1890.28,364.10953 1890.28,813.16753 0,3.551 -1.18,7.071 -1.25,10.551 v 960.821 z" /><path
             id="path24"
             style="fill:#000000;fill-opacity:1;fill-rule:nonzero;stroke:#ffffff;stroke-opacity:1;stroke-width:105.00000263;stroke-miterlimit:4;stroke-dasharray:none"
             d="m 0,2463.19 675.078,-241.49 57.5,123.21 248.012,21.05 35.35,-36.76 -212.819,-50.47 -31.012,-91.79 c -0.039,0 -480.66,-1004.85 -410.078,-1496.409 0,0 300,-178.98 599.879,0 l 79.73,1343.989 v 111.87 l 446.37,100.7 -31.53,-77.65 -332.81,-108.21 153.95,-55 1889.61,-581.6 1889.61,581.6 1277.57,456.92 -3167.18,1218.51 z" /></g></g></g></g></svg>