<?xml version="1.0" standalone="no"?><!DOCTYPE svg PUBLIC "-//W3C//DTD SVG 1.1//EN" "http://www.w3.org/Graphics/SVG/1.1/DTD/svg11.dtd"><svg class="icon" height="512" viewBox="0 0 1026 1024" version="1.1" xmlns="http://www.w3.org/2000/svg"><path d="M1019.705316 704.077643c-2.361791-9.629311-0.303922-19.946284-2.799766-30.016641-2.553149-10.321066-0.137123-21.242813-2.880607-31.971156-2.688225-10.399861-0.109494-21.484314-2.990101-32.351825-2.636037-10.070356-0.057305-20.85498-2.828418-31.445176-2.771113-10.316973-0.137123-21.458731-2.991124-32.32522-2.688225-10.041704-0.1361-20.800745-2.879584-31.41857-2.687202-10.29139-0.107447-21.433148-2.963495-32.299637-2.579755-10.041704-0.276293-20.74344-2.828418-31.334659-2.551102-10.895141-0.356111-22.584368-3.01773-33.917484-2.278903-9.854439-0.357134-20.25123-2.715855-30.571273-2.579755-11.030218-0.38374-22.829961-3.154853-34.301224-2.388397-9.658987-0.632403-19.86749-2.662643-30.017664-2.882654-14.325263-2.691295-29.254278-3.678786-43.904952-0.355087-4.337795 0.081864-8.725732-0.408299-13.062504-0.360204-3.675716-2.058892-6.367011-6.588045-6.228865-7.491625 0.246617-14.900362 0-22.336728 0.10847-3.647063 0.028653-5.350868-0.850367-5.570879-5.129834-0.409322-8.096399-0.217964-16.080234-2.13871-24.25952-2.25025-9.658987-1.316995-20.084431-1.454118-30.18344-0.028653-5.954619-3.704368-10.509355-9.717316-10.125615-6.528694 0.411369-13.087063 1.399883-19.645432 2.140757-3.099594 0.355087-4.746094-0.715291-4.937452-4.199649-0.442068-7.408737-0.769526-14.762215-2.225691-22.281469-2.494821-13.08911-2.494821-26.617218-3.536546-40.062438-0.11154-0.876973-0.222057-1.811252-0.413416-3.127224-2.742461 0-5.266957-0.138146-7.845689 0-22.750143 1.178849-45.662992-2.031263-68.38346 2.469238-11.55108 2.276856-23.517623 2.25025-35.234479 3.374864-10.288321 0.98749-20.526499 2.168386-30.789237 3.320629-0.51984 0.026606-0.98749 0.218988-1.424442 0.329505-6.804986 1.6465-13.530155 3.539616-20.388353 4.883217-7.271614 1.427512-14.626115 2.360767-21.979594 3.539616-0.303922 0.028653-0.603751 0.165776-0.934279 0.24764-5.241374 1.701758-10.482749 3.592828-15.832594 5.02034-5.242398 1.372254-10.646478 2.168386-15.97074 3.431146-3.099594 0.768503-6.092765 1.836835-9.19236 2.798742-3.348258 1.070378-6.694469 2.084475-9.933233 3.292999-4.199649 1.645476-8.258081 3.594875-12.511965 5.130857-3.567245 1.344624-7.438413 2.00261-11.033287 3.514033-5.759167 2.440585-11.33107 5.460362-17.121959 7.984858-5.433756 2.358721-11.332093 4.060479-16.682961 6.750751-6.009877 3.072989-11.55415 7.105838-17.451464 10.454096-7.712659 4.363378-15.808034 7.984858-23.187095 12.787234-8.316409 5.405103-16.522302 11.221576-23.931039 17.808598-9.520841 8.505721-18.083867 18.055215-27.27418 26.917046-0.933255 0.962931-4.471848 0.934279-5.40408-0.053212-10.455119-11.004635-20.912285-22.0062-33.258475-30.951943-2.304486-1.591241-4.117784-3.815909-6.421246-5.352915-5.15951-3.400446-10.400884-6.584975-15.642259-9.850345-4.279467-2.716878-8.53335-5.405103-12.812817-8.096399-2.524496-1.588171-5.024433-3.070942-7.603165-4.554736-4.059456-2.331092-8.147564-4.800329-12.346189-6.803963-5.104251-2.469238-10.509355-4.334725-15.533788-6.749728-5.021364-2.333138-9.713222-5.323239-14.842033-7.491625-7.574512-3.182482-15.312754-5.982248-23.079648-8.752338-5.845125-2.14178-11.745509-4.034896-17.700127-5.872754-6.612605-2.085498-13.196557-4.060479-19.892049-5.872754-7.792477-2.086521-15.642259-4.007267-23.5166-5.817496-9.001001-2.085498-18.082844-3.952009-27.083845-5.844102-4.912893-1.017166-9.825786-2.114151-14.817474-2.772136-7.024997-0.877997-14.078647-0.548492-21.129226-2.826372-6.365988-2.031263-13.416568-1.235131-20.25123-2.635013-12.102642-2.495844-24.725124-2.716878-37.155225-3.430122-9.246595-0.467651-18.495236-0.275269-27.658943-0.301875-12.129248-0.026606-24.204262-0.026606-36.113499-0.026606-1.153266 8.670473-2.333138 16.792455-3.374864 24.970718-0.246617 2.220574 0.053212 4.527107-0.10847 6.777357-0.934279 11.441587-1.812275 22.912849-3.12927 34.273595-0.138146 1.370207-2.579755 3.511987-3.870144 3.457752-3.484358-0.165776-6.859221-1.64957-10.317996-1.920746-4.857635-0.358157-9.713222-0.220011-14.59951-0.057305-0.930185 0.057305-2.384303 1.017166-2.771113 1.920746-1.125637 2.828418-2.358721 5.737678-2.551102 8.699126-1.291412 14.517645-2.333138 29.059849-3.40454 43.575448-0.216941 3.209088-0.49221 6.504134-0.216941 9.68764 0.520863 4.992711-1.866511 5.980201-6.203282 5.843078-7.271614-0.216941-14.570857 0.082888-21.842471-0.10847-4.333702-0.082888-6.008854 2.662643-6.420223 5.954619-1.261737 10.783601 0.274246 21.595854-2.632967 32.43369-2.52552 9.386788-0.246617 19.48375-2.771113 29.416983-2.799766 10.975982-0.082888 22.775726-3.099594 34.3002-2.498914 9.742898-0.441045 20.195971-2.774183 30.459732-2.521426 11.113105-0.272199 22.912849-3.046383 34.408671-2.411933 9.991562-0.216941 20.608364-2.825348 31.009248-2.579755 10.536984-0.10847 21.842471-2.963495 32.8205-2.578732 10.067286-0.137123 20.796652-2.852978 31.388894-2.688225 10.511401-0.166799 21.815865-3.01773 32.8205-2.553149 9.934257-0.194428 20.525476-2.77316 30.950919-2.688225 10.536984-0.163729 21.816888-3.046383 32.821523-2.551102 10.094916-0.10847 20.908192-2.825348 31.500435-2.495844 9.713222-0.604774 20.195971-2.879584 30.430056-2.499937 10.949376-0.058328 22.583344-3.0208 33.917484-2.333138 9.302877-0.629333 19.262716-2.604314 29.058826-2.032286 9.933233-0.441045 20.582781-0.441045 31.55774 0.961908 0 2.057869 0 3.183506 0 139.561569 0 279.150768 0 418.742013 0 4.52813 0 9.057283-0.165776 13.612019 0.10847 1.204431 0.054235 2.604314 0.961908 3.566222 1.866511 10.096962 9.712199 19.921725 19.812231 33.667797 24.420179 2.882654 0.933255 5.599532 2.251274 8.42488 3.294023 4.446265 1.647523 8.837272 4.335748 13.362332 4.609994 15.228843 1.042749 30.733978 2.197038 45.497217-2.798742 7.874341-2.688225 15.119349-7.187703 22.528086-11.112082 6.558369-3.484358 12.020778-8.287757 17.096377-13.774725 3.238764-3.541663 6.504134-6.887874 12.843516-6.887874 142.664234 0.328481 285.296745 0.275269 427.962002 0.221034 1.287319 0 2.52552-0.11154 4.004197-0.221034 0.081864-1.208525 0.249687-2.112104 0.166799-3.01773-0.934279-10.648524 0-21.240767-2.554172-31.94148C1020.089056 727.703737 1022.640158 715.76994 1019.705316 704.077643zM356.276465 739.39501c-26.207895 0.028653-52.384068 0.028653-78.588893 0.028653-78.042447 0-156.13913 0-234.208183 0-1.75497 0-3.484358 0-5.266957 0 0-10.127661 0-19.482727 0-28.812209 0.083911-3.625574 2.687202-3.979638 5.433756-4.009314 5.982248 0 11.991102-0.024559 17.972327 0.055259 17.536398 0.166799 35.290761-0.98749 52.632731 1.100054 12.980639 1.591241 26.151613 0.328481 38.689161 2.932796 10.787694 2.28095 21.708418 0.442068 32.024367 2.829442 9.355065 2.13871 18.98847 0.629333 27.879977 3.01773 7.601118 2.029216 15.175631 0.548492 22.143323 2.608407 8.369621 2.466168 17.149589 0.73985 24.99937 3.182482 7.187703 2.196015 14.517645 0.51984 21.154809 2.659573 7.520277 2.416026 15.504112 0.741897 22.50455 3.182482 6.033413 2.086521 11.933797 1.320065 17.751293 2.416026 8.04114 1.508353 16.000416 3.403516 23.957645 4.996804 2.688225 0.491187 5.487991 0.382717 8.204869 0.599657 3.182482 0.166799 6.337335 0.387833 9.437953 0.632403 0.082888 0.576121 0.10847 1.179872 0.165776 1.783623C360.856783 738.875171 358.58095 739.366358 356.276465 739.39501zM398.232019 709.23613c-1.208525 0.082888-3.016707 0.716314-3.483334 0.166799-3.12927-3.430122-7.246031-1.700735-10.783601-2.471284-7.274684-1.645476-14.545274-3.374864-21.762653-5.051039-0.329505-0.079818-0.659009-0.215918-0.958838-0.271176-7.848759-1.044796-15.642259-2.169409-23.5166-3.128247-9.741875-1.209548-19.841907-1.155313-29.225625-3.787256-6.338359-1.755993-12.81384-0.768503-18.741853-2.579755-8.287757-2.52552-17.067724-0.934279-24.970718-3.267417-7.875365-2.332115-15.749706-0.602727-23.213701-2.604314-8.974395-2.470261-18.358113-0.824785-26.861788-3.182482-7.849782-2.196015-15.725146-0.717338-23.188118-2.498914-12.350283-2.879584-25.080212-0.850367-37.129642-3.430122-9.30083-2.004657-18.438954-1.208525-27.576055-2.14178-8.395204-0.929162-16.765849-2.192945-25.136493-2.63399-8.367575-0.436952-16.737196-0.10847-25.601074-0.10847-1.016143-12.129248-0.354064-23.487947 3.212158-35.012422 0.437975-0.055259 1.37123-0.303922 2.275833-0.276293 22.666232 0.163729 45.333488-0.659009 67.916832 0.988514 9.383718 0.687662 19.234063 0.549515 28.317952 2.854001 6.695492 1.699712 13.225209 1.37123 19.757996 2.470261 7.462972 1.318018 14.81645 3.400446 22.171975 5.129834 0.299829 0.082888 0.713244 0.082888 0.958838 0.109494 7.491625 1.124614 15.09172 1.920746 22.420639 3.486404 5.762237 1.150196 11.250228 3.236718 16.875343 4.937452 0.467651 0.11154 0.934279 0.220011 1.399883 0.327458 5.980201 1.154289 12.046361 2.00568 18.000979 3.568269 4.333702 1.152243 8.479115 3.295046 12.787234 4.886287 3.263323 1.204431 6.583952 2.25025 9.959839 3.125177 4.499477 1.208525 9.082866 2.032286 13.499455 3.51301 3.979638 1.316995 7.682983 3.457752 11.57871 5.051039 3.103688 1.261737 6.42534 2.085498 9.524934 3.349281 6.667863 2.578732 13.226233 5.375427 19.754926 8.008394 3.046383 1.237177 6.066159 2.25025 8.999978 3.570315 8.42488 3.813862 16.741289 7.684006 25.108864 11.55108 2.691295 1.261737 5.379521 2.632967 8.066723 3.948939C398.531847 708.302875 398.370165 708.799178 398.232019 709.23613zM495.179025 539.078729c0 59.026348 0 118.048603 0 177.074951 0 1.753947 0 3.511987 0 5.265934-0.466628 0.38681-0.932232 0.796132-1.428535 1.153266-1.863441-1.207501-3.784186-2.469238-5.650697-3.678786-4.88424-3.015683-9.824763-5.92392-14.654768-8.971325-5.708002-3.64911-11.19497-7.711636-17.038048-11.05887-6.011924-3.403516-12.378935-6.147-18.469654-9.438976-6.475482-3.540639-12.650111-7.603165-19.151176-11.004635-4.828982-2.49789-10.016121-4.198625-14.820544-6.502088-4.883217-2.388397-9.603729-5.212722-14.459317-7.684006-2.498914-1.291412-5.132904-2.304486-7.712659-3.403516-7.133468-2.963495-14.157441-6.033413-21.346167-8.78099-5.929036-2.304486-12.103666-4.006244-18.057261-6.257517-6.721075-2.579755-13.387915-5.541203-20.195971-7.983835-4.059456-1.509377-8.396227-2.166339-12.512988-3.482311-5.432733-1.675152-10.754948-3.625574-16.217357-5.380544-3.320629-1.070378-6.695492-2.196015-10.125615-2.963495-5.650697-1.236154-11.441587-2.057869-17.012466-3.432169-6.338359-1.509377-12.541641-3.375887-18.824741-5.129834-0.300852-0.055259-0.630357-0.277316-0.87595-0.329505-6.833639-1.070378-13.637602-2.003634-20.470217-3.237741-8.837272-1.645476-17.563004-3.566222-26.342971-5.270027-1.399883-0.300852-2.908236-0.217964-4.336772-0.329505-14.625092-1.150196-29.55513-0.958838-43.851741-3.841491-11.275811-2.304486-22.309098-1.205455-33.475416-2.192945-1.261737-0.11154-2.52552-0.165776-4.41659-0.303922 0.629333-7.270591-1.64957-14.487969 2.084475-21.320585 0.603751-1.070378 0.411369-2.550079 0.49528-3.841491 0.162706-6.642281-0.796132-13.500479 0.682545-19.812231 2.771113-11.879562 0.713244-24.230867 3.292999-35.726689 2.169409-9.550517 0.274246-19.016099 2.524496-28.099988 2.965541-11.909238 0.740874-24.201192 3.240811-35.83823 2.192945-10.096962 0.38374-20.3597 2.742461-30.071899 2.855024-11.499915 0.438998-23.325241 3.016707-34.412764 2.417049-10.591219 0.333598-21.346167 2.855024-31.417547 2.799766-11.05887 0.221034-22.309098 2.992147-32.821523 2.662643-10.288321 0.274246-20.662599 2.745531-30.458709 2.825348-11.167341 0.354064-22.691815 3.12927-33.339316 2.632967-10.262738 0.162706-20.637016 2.771113-30.433126 2.796696-11.138688 0.299829-22.638603 3.016707-33.284057 2.687202-10.425444 1.100054-20.771069 2.579755-31.007201 0.603751-4.309142 1.974981-8.535397 3.074012-13.144368 10.262738 0 20.85498-0.411369 31.446199 0.081864 12.621459 0.63138 25.493627 0.934279 37.758975 3.431146 7.845689 1.592264 15.612583 1.343601 23.267936 2.607384 7.354502 1.205455 14.59951 3.347235 21.842471 5.047969 0.49528 0.110517 0.98749 0.082888 1.454118 0.164752 7.136537 1.098008 14.379499 1.866511 21.458731 3.40454 5.408173 1.178849 10.56666 3.347235 15.916505 4.910846 4.062526 1.180895 8.095375 2.222621 12.154831 3.182482 5.104251 1.236154 10.428513 2.031263 15.47853 3.539616 4.113691 1.235131 8.013511 3.402493 12.127202 4.968152 3.266393 1.234107 6.66991 2.167363 9.990538 3.263323 6.475482 2.112104 13.033851 3.895727 19.289322 6.475482 5.104251 2.032286 9.824763 5.077645 14.736633 7.574512 2.604314 1.316995 5.513574 2.14178 8.066723 3.511987 6.803963 3.621481 13.499455 7.462972 20.250206 11.087523 6.145977 3.290953 12.541641 6.145977 18.383696 9.821693 5.570879 3.486404 10.67513 7.629771 15.808034 11.799744 6.529717 5.379521 13.088086 10.758018 19.041682 16.766872 7.462972 7.491625 14.325263 15.558347 21.184485 23.626094 0.932232 1.207501 0.51984 3.733021 0.51984 5.625114C495.150372 371.555317 495.179025 455.302697 495.179025 539.078729zM605.436174 679.985946c-2.279926 1.178849-4.529153 2.387373-6.779404 3.51301-6.446829 3.12927-13.063527 5.870708-19.235087 9.382695-7.327896 4.28356-14.268982 9.222035-21.403472 13.775748-7.629771 4.88731-15.257495 9.824763-22.966061 14.546298-1.26276 0.712221-3.047406 0.491187-5.076622 0.821715 0-2.442632 0-4.333702 0-6.254447-0.028653-63.71923-0.082888-127.435391-0.082888-191.153598 0-78.397534 0.138146-156.795069-0.11154-235.217163-0.053212-6.999414 3.182482-11.637038 7.216355-16.000416 7.080256-7.54586 14.546298-14.679327 22.036899-21.704324 4.089132-3.841491 8.642844-7.107885 13.033851-10.591219 4.499477-3.621481 8.91709-7.438413 13.664208-10.701736 3.953032-2.63706 8.453533-4.500501 12.570293-6.862291 3.703345-2.166339 7.134491-4.716418 10.921747-6.832615 4.746094-2.65855 9.629311-5.074575 14.487969-7.54586 5.679349-2.796696 11.387351-5.596462 17.120936-8.176217 2.852978-1.344624 6.03546-2.249227 8.975419-3.457752 3.924379-1.617847 7.762801-3.40454 11.68718-4.992711 2.936889-1.182942 6.008854-2.307555 9.111518-3.240811 4.059456-1.287319 8.31334-2.191922 12.429077-3.538593 4.608971-1.454118 9.1678-3.266393 13.69286-4.857635 0.521886-0.164752 0.908696-0.410346 1.37123-0.493234 5.683443-1.152243 11.362792-2.086521 16.987906-3.511987 5.516644-1.455141 10.867512-3.403516 16.271592-5.15951 0.275269-0.054235 0.603751-0.164752 0.932232-0.164752 6.996344-1.098008 13.967106-1.974981 20.937868-3.348258 7.65433-1.481747 15.20019-3.347235 22.803355-5.021364 0.463558-0.137123 0.930185-0.191358 1.426489-0.246617 11.608386-1.125637 23.296589-1.893116 34.796504-3.431146 17.750269-2.38635 35.534308-3.099594 53.368488-2.962471 1.538029 0 3.1569 0 5.408173 0 0.958838 11.552104 0.958838 22.775726 2.991124 33.642215 2.333138 12.266371 0.76748 24.834618 3.320629 36.688597 2.112104 10.096962 0.216941 20.304442 2.604314 29.937846 2.746554 11.276834 0.466628 22.939455 3.184529 33.776268 2.416026 10.100032 0.274246 20.308535 2.631944 29.967522 2.692319 11.441587 0.550539 23.271006 3.238764 34.271548 2.196015 9.138124 1.3743 18.083867 2.252297 27.112498 1.205455 12.541641 0.76748 25.409716 3.538593 37.566594 2.332115 10.317996 0.220011 20.689205 2.662643 30.513968 2.742461 10.974959 0.466628 22.279423 3.045359 32.81743 2.579755 10.56666 0.276293 21.350261 2.799766 31.391964 2.795673 10.866489 0.355087 22.008246 2.988054 32.351825 2.746554 10.564613 1.428535 21.020756 2.554172 31.474852 0.686638 6.284123 1.729387 12.567223 2.579755 18.824741 0.191358 1.562589-0.13917 3.183506-0.24764 5.433756-5.215792 0-10.236132-0.221034-15.174608 0.054235-15.341407 0.934279-30.899754 0.961908-46.045709 3.51301-7.739265 1.372254-15.504112 1.399883-23.133883 2.550079-11.714809 1.75804-23.459295 3.595898-35.013445 5.847172-6.228865 1.207501-12.18246 3.403516-18.22099 5.132904-0.491187 0.137123-0.986467 0.079818-1.425466 0.192382-6.202259 1.070378-12.403494 1.974981-18.495236 3.374864-7.188726 1.675152-14.322194 3.705392-21.458731 5.734608-6.476505 1.865487-13.060457 3.703345-19.426445 5.928013-6.999414 2.468215-13.776771 5.486968-20.691251 8.013511-3.813862 1.37123-7.847735 2.001587-11.579733 3.483334-5.983271 2.332115-11.800767 5.187139-17.72571 7.712659-3.213181 1.341554-6.641257 2.275833-9.824763 3.64911-6.17463 2.659573-12.320607 5.625114-18.467607 8.367575-4.938476 2.167363-9.987468 4.061502-14.81645 6.39464C614.79431 674.66373 610.156686 677.407214 605.436174 679.985946zM640.887594 706.98588c-3.621481 0.771573-7.188726 1.676176-10.809183 2.417049-1.041726 0.191358-2.140757 0.024559-3.1569 0.024559-0.24764-0.491187-0.409322-0.958838-0.630357-1.454118 3.733021-2.192945 7.380084-4.526083 11.195993-6.475482 6.037507-2.992147 12.236696-5.816472 18.412348-8.505721 3.290953-1.39886 6.913457-2.169409 10.317996-3.540639 3.320629-1.37123 6.448876-3.266393 9.712199-4.691859 3.320629-1.426489 6.642281-2.550079 9.960863-3.787256 7.517207-2.855024 14.95562-5.870708 22.530133-8.478092 4.251837-1.455141 8.779967-2.059915 12.980639-3.431146 4.52506-1.425466 8.833179-3.457752 13.226233-5.02034 3.374864-1.178849 6.749728-2.304486 10.207479-3.099594 5.65172-1.316995 11.387351-2.196015 17.013489-3.568269 5.708002-1.427512 11.250228-3.238764 16.901948-4.885264 0.465604-0.163729 0.907673-0.329505 1.3743-0.382717 7.489578-1.151219 14.983249-2.085498 22.390963-3.514033 7.655354-1.479701 15.146978-3.457752 22.747073-5.158487 0.659009-0.162706 1.316995-0.162706 1.896186-0.221034 13.363356-1.124614 26.917046-1.204431 39.978527-3.620457 24.584931-4.529153 49.172933-1.483794 73.705676-2.662643 1.727341-0.079818 3.51301 0 5.350868 0 1.017166 6.036483 2.358721 11.609409 2.854001 17.232476 0.491187 5.734608 0.107447 11.526521 0.107447 18.192338-10.837836 0-20.992103-1.204431-30.815843 0.275269-14.570857 2.251274-29.333072 0.77055-43.602054 3.292999-9.933233 1.75804-20.032242 0.058328-29.414937 2.63706-9.934257 2.77009-20.059871 0.491187-29.443589 3.044336-8.094352 2.192945-16.46295 0.355087-23.983227 2.772136-8.755408 2.742461-17.724687 0.604774-25.959232 2.963495-7.684006 2.25025-15.20019 1.75804-22.803355 2.63399-7.270591 0.823761-14.901385 0.711198-21.567201 3.183506-6.529717 2.415003-12.842493 1.757017-19.235087 2.577708-6.420223 0.824785-13.282514 0.77055-19.070334 3.184529-6.284123 2.607384-12.542664 1.535983-18.663058 2.690272-6.803963 1.316995-13.580297 3.347235-20.333094 4.991688C643.19515 706.906062 641.987648 706.741309 640.887594 706.98588zM986.940075 739.423663c-108.086717 0-216.45075 0.054235-324.923254-0.028653 0.058328-0.659009 0.058328-1.291412 0.058328-1.920746 0.245593-0.221034 0.408299-0.604774 0.659009-0.632403 9.30083-1.257643 18.575054-2.495844 27.878954-3.674693 8.835226-1.096984 18.027585-0.905626 26.397207-3.567245 6.201236-1.976004 12.154831-1.592264 18.192338-2.359744 7.738241-0.99056 15.833617-0.825808 22.967084-3.377934 6.724145-2.412956 13.253862-1.616824 19.866467-2.384303 9.633405-1.099031 19.59222-0.854461 28.813233-3.486404 8.315386-2.442632 16.766872-0.491187 24.641213-2.663666 11.224646-3.070942 22.884197-0.604774 33.779338-3.237741 10.56359-2.579755 21.155832-0.821715 31.531134-2.524496 27.358091-4.443196 54.988382-2.167363 82.46006-2.933819 7.216355-0.192382 7.541767 0.192382 7.679913 7.16212C987.022963 722.024387 986.940075 730.256886 986.940075 739.423663z" /></svg>