<?xml version="1.0" encoding="UTF-8" standalone="no"?>
<!-- Generator: Adobe Illustrator 16.0.0, SVG Export Plug-In . SVG Version: 6.00 Build 0)  -->

<svg
   xmlns:dc="http://purl.org/dc/elements/1.1/"
   xmlns:cc="http://creativecommons.org/ns#"
   xmlns:rdf="http://www.w3.org/1999/02/22-rdf-syntax-ns#"
   xmlns:svg="http://www.w3.org/2000/svg"
   xmlns="http://www.w3.org/2000/svg"
   xmlns:sodipodi="http://sodipodi.sourceforge.net/DTD/sodipodi-0.dtd"
   xmlns:inkscape="http://www.inkscape.org/namespaces/inkscape"
   version="1.1"
   id="Capa_1"
   x="0px"
   y="0px"
   width="620.92657"
   height="587.29333"
   viewBox="0 0 620.92655 587.29331"
   xml:space="preserve"
   sodipodi:docname="projects.svg"
   inkscape:version="0.92.1 r15371"><metadata
     id="metadata53"><rdf:RDF><cc:Work
         rdf:about=""><dc:format>image/svg+xml</dc:format><dc:type
           rdf:resource="http://purl.org/dc/dcmitype/StillImage" /><dc:title></dc:title></cc:Work></rdf:RDF></metadata><defs
     id="defs51" /><sodipodi:namedview
     pagecolor="#ffffff"
     bordercolor="#666666"
     borderopacity="1"
     objecttolerance="10"
     gridtolerance="10"
     guidetolerance="10"
     inkscape:pageopacity="0"
     inkscape:pageshadow="2"
     inkscape:window-width="705"
     inkscape:window-height="480"
     id="namedview49"
     showgrid="false"
     fit-margin-top="0"
     fit-margin-left="0"
     fit-margin-right="0"
     fit-margin-bottom="0"
     inkscape:zoom="0.38562153"
     inkscape:cx="310.52859"
     inkscape:cy="293.64649"
     inkscape:window-x="0"
     inkscape:window-y="49"
     inkscape:window-maximized="0"
     inkscape:current-layer="Capa_1" /><g
     id="g16"
     style="fill:#ffffff;fill-opacity:1;stroke:#000000;stroke-width:9;stroke-miterlimit:4;stroke-dasharray:none;stroke-opacity:1"
     transform="translate(4.5290796,-12.35266)"><g
       id="g14"
       style="fill:#ffffff;fill-opacity:1;stroke:#000000;stroke-width:9;stroke-miterlimit:4;stroke-dasharray:none;stroke-opacity:1"><path
         d="m 52.875,491.655 506.211,0.529 c 0,0 0.003,0 0.007,0 2.145,0 4.149,-1.052 5.37,-2.814 1.222,-1.767 1.496,-4.016 0.738,-6.023 l -29.149,-77.071 c -0.96,-2.54 -3.392,-4.222 -6.108,-4.222 H 83.114 c -2.681,0 -5.09,1.64 -6.073,4.134 L 46.808,482.73 c -0.793,2.008 -0.542,4.28 0.673,6.066 1.215,1.785 3.232,2.856 5.394,2.859 z m 34.68,-76.542 h 437.877 l 24.206,64.005 -487.161,-0.509 z"
         id="path2"
         style="fill:#ffffff;fill-opacity:1;stroke:#000000;stroke-width:9;stroke-miterlimit:4;stroke-dasharray:none;stroke-opacity:1"
         inkscape:connector-curvature="0" /><path
         d="m 580.069,544.051 c 0,0 -0.003,0 -0.007,0 -61.713,0.062 -472.583,0.258 -547.616,0.075 -0.006,0 -0.01,0 -0.016,0 -3.601,0 -6.523,2.915 -6.53,6.513 -0.006,3.604 2.909,6.536 6.514,6.547 22.671,0.055 75.997,0.074 141.092,0.074 150.361,0 363.5,-0.11 406.57,-0.153 3.604,-0.003 6.526,-2.929 6.523,-6.536 -0.003,-3.598 -2.925,-6.52 -6.53,-6.52 z"
         id="path4"
         style="fill:#ffffff;fill-opacity:1;stroke:#000000;stroke-width:9;stroke-miterlimit:4;stroke-dasharray:none;stroke-opacity:1"
         inkscape:connector-curvature="0" /><path
         d="m 88.093,314.029 c -0.059,7.33 2.07,13.157 6.321,17.323 5.975,5.845 13.709,5.756 14.378,5.775 h 389.991 c 0.242,0.014 0.601,0.023 1.052,0.023 3.304,0 11.711,-0.614 17.807,-6.354 2.896,-2.729 6.334,-7.705 6.281,-15.936 -0.068,-8.849 -0.036,-68.36 -0.003,-125.917 0.029,-52.303 0.056,-101.705 0.003,-109.018 -0.068,-8.019 -3.421,-12.668 -6.223,-15.159 -5.923,-5.266 -13.762,-5.083 -15.821,-4.93 L 109.38,59.841 c -0.895,-0.023 -9.194,-0.084 -15.309,5.802 -2.684,2.583 -5.896,7.3 -5.978,15.117 0,0.003 0,0.006 0,0.01 -0.065,7.231 -0.033,57.576 0.003,110.872 0.04,55.885 0.075,113.673 -0.003,122.387 z m 13.06,-233.145 c 0.072,-6.935 4.946,-7.986 7.992,-7.986 0.02,0 0.036,0 0.056,0 h 392.958 c 0.238,0 0.474,-0.013 0.709,-0.04 0.039,0 3.989,-0.261 6.157,1.672 0.447,0.395 1.806,1.603 1.838,5.501 0.053,7.248 0.023,56.626 -0.003,108.903 -0.032,57.583 -0.065,117.125 0.003,126.018 0.02,2.847 -0.682,4.91 -2.148,6.312 -2.693,2.569 -7.682,2.925 -9.331,2.817 -0.14,-0.01 -0.283,-0.013 -0.428,-0.013 H 108.603 c -0.059,0 -3.042,-0.085 -5.051,-2.051 -1.619,-1.587 -2.426,-4.241 -2.396,-7.882 0.078,-8.769 0.039,-66.59 0.003,-122.505 -0.035,-53.265 -0.072,-103.573 -0.006,-110.746 z"
         id="path6"
         style="fill:#ffffff;fill-opacity:1;stroke:#000000;stroke-width:9;stroke-miterlimit:4;stroke-dasharray:none;stroke-opacity:1"
         inkscape:connector-curvature="0" /><path
         d="m 609.953,530.126 c -8.336,-19.991 -46.555,-116.668 -52.973,-133.303 -1.349,-3.483 -3.429,-6.493 -6.154,-8.962 11.502,-7.61 12.863,-21.124 13.023,-35.561 0.095,-9.132 0.02,-82.442 -0.092,-146.666 0.111,-64.26 0.187,-137.563 0.092,-146.672 -0.262,-23.677 -3.497,-41.813 -41.738,-42.101 H 370.686 c -7.803,-0.022 -32.388,0 -64.671,0.062 -32.326,-0.062 -56.894,-0.082 -64.854,-0.062 H 89.827 c -38.169,0.288 -41.396,18.424 -41.64,42.091 -0.108,8.606 -0.029,77.179 0.059,146.659 -0.088,69.496 -0.167,138.068 -0.059,146.688 0.147,14.179 1.43,27.477 12.39,35.149 -2.615,2.504 -4.757,5.586 -6.34,9.184 -6.739,15.305 -51.083,128.4 -52.967,133.21 -0.082,0.206 -0.153,0.418 -0.212,0.633 -0.199,0.719 -1.903,7.203 -0.522,13.674 l 5.083,30.229 c 0.164,0.771 0.261,1.616 0.369,2.488 0.669,5.354 2.233,17.888 19.955,18.143 6.703,0.102 70.907,0.137 153.521,0.137 158.549,0 384.852,-0.127 402.352,-0.137 8.4,0.833 21.437,-3.65 24.046,-19.608 l 5.021,-29.319 0.039,-0.16 c 1.052,-4.131 2.142,-8.398 -0.969,-15.796 z m -11.685,12.563 -0.107,0.424 c -0.043,0.167 -0.078,0.337 -0.107,0.503 l -5.07,29.626 c -1.414,8.642 -7.546,8.972 -10.001,8.756 -0.268,-0.035 -0.538,-0.052 -0.81,-0.052 v 0 c -5.364,0.006 -536.47,0.307 -556.037,0 -6.363,-0.088 -6.523,-1.358 -7.189,-6.699 -0.157,-1.251 -0.317,-2.456 -0.5,-3.298 L 13.36,541.706 c -0.607,-2.844 -0.091,-6.16 0.215,-7.482 2.893,-7.382 46.169,-117.706 52.614,-132.336 2.236,-5.087 5.972,-7.931 11.417,-8.698 3.18,-0.45 5.563,-3.144 5.616,-6.354 0.055,-3.212 -2.233,-5.987 -5.397,-6.542 C 63.757,377.818 61.442,371.426 61.242,352.147 61.134,343.597 61.213,275.08 61.301,205.609 61.213,136.158 61.134,67.638 61.242,59.101 61.457,38.493 62.633,30.125 89.875,29.919 h 151.491 c 7.793,-0.026 32.332,0 64.648,0.062 32.273,-0.062 56.825,-0.082 64.812,-0.062 h 151.236 c 27.32,0.202 28.499,8.577 28.728,29.182 0.095,9.05 0.02,82.288 -0.092,146.531 0.111,64.207 0.187,137.452 0.092,146.525 -0.222,20.072 -2.654,26.239 -18.336,28.43 -3.213,0.448 -5.609,3.188 -5.629,6.429 -0.02,3.242 2.345,6.011 5.554,6.494 6.566,0.996 10.745,3.692 12.413,8.012 6.433,16.668 44.762,113.628 53.11,133.646 0.003,0.006 0.007,0.013 0.007,0.02 1.417,3.358 1.192,4.233 0.359,7.501 z"
         id="path8"
         style="fill:#ffffff;fill-opacity:1;stroke:#000000;stroke-width:9;stroke-miterlimit:4;stroke-dasharray:none;stroke-opacity:1"
         inkscape:connector-curvature="0" /><path
         d="m 119.906,250.495 c 3.604,0 6.53,-2.925 6.53,-6.53 V 100.31 c 0,-3.604 -2.925,-6.53 -6.53,-6.53 -3.605,0 -6.53,2.925 -6.53,6.53 v 143.655 c 0,3.608 2.926,6.53 6.53,6.53 z"
         id="path10"
         style="fill:#ffffff;fill-opacity:1;stroke:#000000;stroke-width:9;stroke-miterlimit:4;stroke-dasharray:none;stroke-opacity:1"
         inkscape:connector-curvature="0" /><path
         d="m 104.982,420.762 c -3.343,-1.378 -7.153,0.216 -8.524,3.552 l -15.237,37.005 c -1.375,3.333 0.215,7.15 3.549,8.524 0.816,0.336 1.655,0.493 2.484,0.493 2.57,0 5.002,-1.524 6.04,-4.045 l 15.237,-37.005 c 1.375,-3.336 -0.215,-7.153 -3.549,-8.524 z"
         id="path12"
         style="fill:#ffffff;fill-opacity:1;stroke:#000000;stroke-width:9;stroke-miterlimit:4;stroke-dasharray:none;stroke-opacity:1"
         inkscape:connector-curvature="0" /></g></g><g
     id="g18"
     transform="translate(4.5290796,-12.35266)" /><g
     id="g20"
     transform="translate(4.5290796,-12.35266)" /><g
     id="g22"
     transform="translate(4.5290796,-12.35266)" /><g
     id="g24"
     transform="translate(4.5290796,-12.35266)" /><g
     id="g26"
     transform="translate(4.5290796,-12.35266)" /><g
     id="g28"
     transform="translate(4.5290796,-12.35266)" /><g
     id="g30"
     transform="translate(4.5290796,-12.35266)" /><g
     id="g32"
     transform="translate(4.5290796,-12.35266)" /><g
     id="g34"
     transform="translate(4.5290796,-12.35266)" /><g
     id="g36"
     transform="translate(4.5290796,-12.35266)" /><g
     id="g38"
     transform="translate(4.5290796,-12.35266)" /><g
     id="g40"
     transform="translate(4.5290796,-12.35266)" /><g
     id="g42"
     transform="translate(4.5290796,-12.35266)" /><g
     id="g44"
     transform="translate(4.5290796,-12.35266)" /><g
     id="g46"
     transform="translate(4.5290796,-12.35266)" /></svg>