<?xml version="1.0" encoding="UTF-8" standalone="no"?>
<!-- Generator: Adobe Illustrator 17.1.0, SVG Export Plug-In . SVG Version: 6.00 Build 0)  -->

<svg
   xmlns:dc="http://purl.org/dc/elements/1.1/"
   xmlns:cc="http://creativecommons.org/ns#"
   xmlns:rdf="http://www.w3.org/1999/02/22-rdf-syntax-ns#"
   xmlns:svg="http://www.w3.org/2000/svg"
   xmlns="http://www.w3.org/2000/svg"
   xmlns:sodipodi="http://sodipodi.sourceforge.net/DTD/sodipodi-0.dtd"
   xmlns:inkscape="http://www.inkscape.org/namespaces/inkscape"
   version="1.1"
   id="Capa_1"
   x="0px"
   y="0px"
   viewBox="0 0 300.304 241.9282"
   xml:space="preserve"
   sodipodi:docname="projects.svg"
   width="300.30399"
   height="241.92819"
   inkscape:version="0.92.1 r15371"><metadata
     id="metadata67"><rdf:RDF><cc:Work
         rdf:about=""><dc:format>image/svg+xml</dc:format><dc:type
           rdf:resource="http://purl.org/dc/dcmitype/StillImage" /><dc:title></dc:title></cc:Work></rdf:RDF></metadata><defs
     id="defs65" /><sodipodi:namedview
     pagecolor="#ffffff"
     bordercolor="#666666"
     borderopacity="1"
     objecttolerance="10"
     gridtolerance="10"
     guidetolerance="10"
     inkscape:pageopacity="0"
     inkscape:pageshadow="2"
     inkscape:window-width="705"
     inkscape:window-height="480"
     id="namedview63"
     showgrid="false"
     fit-margin-top="0"
     fit-margin-left="0"
     fit-margin-right="0"
     fit-margin-bottom="0"
     inkscape:zoom="0.79917648"
     inkscape:cx="150.15199"
     inkscape:cy="120.96701"
     inkscape:window-x="0"
     inkscape:window-y="49"
     inkscape:window-maximized="0"
     inkscape:current-layer="Capa_1" /><g
     id="g30"
     style="fill:#fcfcfc;fill-opacity:1;stroke:#050505;stroke-width:5;stroke-miterlimit:4;stroke-dasharray:none;stroke-opacity:1"
     transform="translate(2.5,-26.690814)"><path
       style="fill:#fcfcfc;fill-opacity:1;stroke:#050505;stroke-width:5;stroke-miterlimit:4;stroke-dasharray:none;stroke-opacity:1"
       d="M 272.804,99.375 H 157.431 V 80.008 c 0,-12.407 -10.093,-22.5 -22.5,-22.5 h -14.849 c -5.074,0 -11.235,-4.357 -12.925,-9.142 l -5.009,-14.178 c -1.38,-3.906 -5.667,-5.952 -9.57,-4.573 -3.906,1.38 -5.953,5.665 -4.573,9.57 l 5.009,14.178 c 3.793,10.735 15.683,19.145 27.068,19.145 h 14.849 c 4.136,0 7.5,3.364 7.5,7.5 V 99.376 H 22.5 c -12.407,0 -22.5,10.093 -22.5,22.5 v 121.743 c 0,12.407 10.093,22.5 22.5,22.5 h 250.304 c 12.407,0 22.5,-10.093 22.5,-22.5 V 121.875 c 0,-12.406 -10.094,-22.5 -22.5,-22.5 z m -250.304,15 h 250.304 c 4.136,0 7.5,3.364 7.5,7.5 v 4.544 H 15 v -4.544 c 0,-4.135 3.364,-7.5 7.5,-7.5 z M 272.804,251.119 H 22.5 c -4.136,0 -7.5,-3.364 -7.5,-7.5 v -107.2 h 265.304 v 107.199 c 0,4.136 -3.365,7.501 -7.5,7.501 z"
       id="path2"
       inkscape:connector-curvature="0" /><path
       style="fill:#fcfcfc;fill-opacity:1;stroke:#050505;stroke-width:5;stroke-miterlimit:4;stroke-dasharray:none;stroke-opacity:1"
       d="M 61.481,144.419 H 45.086 c -4.962,0 -9,4.038 -9,9 v 12 c 0,4.962 4.038,9 9,9 h 16.395 c 4.962,0 9,-4.038 9,-9 v -12 c 0,-4.962 -4.037,-9 -9,-9 z m -1,20 H 46.086 v -10 h 14.395 z"
       id="path4"
       inkscape:connector-curvature="0" /><path
       style="fill:#fcfcfc;fill-opacity:1;stroke:#050505;stroke-width:5;stroke-miterlimit:4;stroke-dasharray:none;stroke-opacity:1"
       d="m 93.391,174.419 h 16.395 c 4.962,0 9,-4.038 9,-9 v -12 c 0,-4.962 -4.038,-9 -9,-9 H 93.391 c -4.962,0 -9,4.038 -9,9 v 12 c 0,4.963 4.037,9 9,9 z m 1,-20 h 14.395 v 10 H 94.391 Z"
       id="path6"
       inkscape:connector-curvature="0" /><path
       style="fill:#fcfcfc;fill-opacity:1;stroke:#050505;stroke-width:5;stroke-miterlimit:4;stroke-dasharray:none;stroke-opacity:1"
       d="m 141.695,174.419 h 16.395 c 4.962,0 9,-4.038 9,-9 v -12 c 0,-4.962 -4.038,-9 -9,-9 h -16.395 c -4.962,0 -9,4.038 -9,9 v 12 c 0,4.963 4.038,9 9,9 z m 1,-20 h 14.395 v 10 h -14.395 z"
       id="path8"
       inkscape:connector-curvature="0" /><path
       style="fill:#fcfcfc;fill-opacity:1;stroke:#050505;stroke-width:5;stroke-miterlimit:4;stroke-dasharray:none;stroke-opacity:1"
       d="M 206.395,144.419 H 190 c -4.962,0 -9,4.038 -9,9 v 12 c 0,4.962 4.038,9 9,9 h 16.395 c 4.962,0 9,-4.038 9,-9 v -12 c 0,-4.962 -4.038,-9 -9,-9 z m -1,20 H 191 v -10 h 14.395 z"
       id="path10"
       inkscape:connector-curvature="0" /><path
       style="fill:#fcfcfc;fill-opacity:1;stroke:#050505;stroke-width:5;stroke-miterlimit:4;stroke-dasharray:none;stroke-opacity:1"
       d="m 254.699,144.419 h -16.395 c -4.962,0 -9,4.038 -9,9 v 12 c 0,4.962 4.038,9 9,9 h 16.395 c 4.962,0 9,-4.038 9,-9 v -12 c 0,-4.962 -4.037,-9 -9,-9 z m -1,20 h -14.395 v -10 h 14.395 z"
       id="path12"
       inkscape:connector-curvature="0" /><path
       style="fill:#fcfcfc;fill-opacity:1;stroke:#050505;stroke-width:5;stroke-miterlimit:4;stroke-dasharray:none;stroke-opacity:1"
       d="M 61.481,179.758 H 45.086 c -4.962,0 -9,4.038 -9,9 v 12 c 0,4.962 4.038,9 9,9 h 16.395 c 4.962,0 9,-4.038 9,-9 v -12 c 0,-4.962 -4.037,-9 -9,-9 z m -1,20 H 46.086 v -10 h 14.395 z"
       id="path14"
       inkscape:connector-curvature="0" /><path
       style="fill:#fcfcfc;fill-opacity:1;stroke:#050505;stroke-width:5;stroke-miterlimit:4;stroke-dasharray:none;stroke-opacity:1"
       d="m 93.391,209.758 h 16.395 c 4.962,0 9,-4.038 9,-9 v -12 c 0,-4.962 -4.038,-9 -9,-9 H 93.391 c -4.962,0 -9,4.038 -9,9 v 12 c 0,4.963 4.037,9 9,9 z m 1,-20 h 14.395 v 10 H 94.391 Z"
       id="path16"
       inkscape:connector-curvature="0" /><path
       style="fill:#fcfcfc;fill-opacity:1;stroke:#050505;stroke-width:5;stroke-miterlimit:4;stroke-dasharray:none;stroke-opacity:1"
       d="m 141.695,209.758 h 16.395 c 4.962,0 9,-4.038 9,-9 v -12 c 0,-4.962 -4.038,-9 -9,-9 h -16.395 c -4.962,0 -9,4.038 -9,9 v 12 c 0,4.963 4.038,9 9,9 z m 1,-20 h 14.395 v 10 h -14.395 z"
       id="path18"
       inkscape:connector-curvature="0" /><path
       style="fill:#fcfcfc;fill-opacity:1;stroke:#050505;stroke-width:5;stroke-miterlimit:4;stroke-dasharray:none;stroke-opacity:1"
       d="M 206.395,179.758 H 190 c -4.962,0 -9,4.038 -9,9 v 12 c 0,4.962 4.038,9 9,9 h 16.395 c 4.962,0 9,-4.038 9,-9 v -12 c 0,-4.962 -4.038,-9 -9,-9 z m -1,20 H 191 v -10 h 14.395 z"
       id="path20"
       inkscape:connector-curvature="0" /><path
       style="fill:#fcfcfc;fill-opacity:1;stroke:#050505;stroke-width:5;stroke-miterlimit:4;stroke-dasharray:none;stroke-opacity:1"
       d="m 254.699,179.758 h -16.395 c -4.962,0 -9,4.038 -9,9 v 12 c 0,4.962 4.038,9 9,9 h 16.395 c 4.962,0 9,-4.038 9,-9 v -12 c 0,-4.962 -4.037,-9 -9,-9 z m -1,20 h -14.395 v -10 h 14.395 z"
       id="path22"
       inkscape:connector-curvature="0" /><path
       style="fill:#fcfcfc;fill-opacity:1;stroke:#050505;stroke-width:5;stroke-miterlimit:4;stroke-dasharray:none;stroke-opacity:1"
       d="M 61.481,215.126 H 45.086 c -4.962,0 -9,4.038 -9,9 v 12 c 0,4.962 4.038,9 9,9 h 16.395 c 4.962,0 9,-4.038 9,-9 v -12 c 0,-4.962 -4.037,-9 -9,-9 z m -1,20 H 46.086 v -10 h 14.395 z"
       id="path24"
       inkscape:connector-curvature="0" /><path
       style="fill:#fcfcfc;fill-opacity:1;stroke:#050505;stroke-width:5;stroke-miterlimit:4;stroke-dasharray:none;stroke-opacity:1"
       d="M 206.09,215.126 H 93.695 c -4.962,0 -9,4.038 -9,9 v 12 c 0,4.962 4.038,9 9,9 H 206.09 c 4.962,0 9,-4.038 9,-9 v -12 c 0,-4.962 -4.037,-9 -9,-9 z m -1,20 H 94.695 v -10 H 205.09 Z"
       id="path26"
       inkscape:connector-curvature="0" /><path
       style="fill:#fcfcfc;fill-opacity:1;stroke:#050505;stroke-width:5;stroke-miterlimit:4;stroke-dasharray:none;stroke-opacity:1"
       d="m 254.699,215.126 h -16.395 c -4.962,0 -9,4.038 -9,9 v 12 c 0,4.962 4.038,9 9,9 h 16.395 c 4.962,0 9,-4.038 9,-9 v -12 c 0,-4.962 -4.037,-9 -9,-9 z m -1,20 h -14.395 v -10 h 14.395 z"
       id="path28"
       inkscape:connector-curvature="0" /></g><g
     id="g32"
     transform="translate(2.5,-26.690814)" /><g
     id="g34"
     transform="translate(2.5,-26.690814)" /><g
     id="g36"
     transform="translate(2.5,-26.690814)" /><g
     id="g38"
     transform="translate(2.5,-26.690814)" /><g
     id="g40"
     transform="translate(2.5,-26.690814)" /><g
     id="g42"
     transform="translate(2.5,-26.690814)" /><g
     id="g44"
     transform="translate(2.5,-26.690814)" /><g
     id="g46"
     transform="translate(2.5,-26.690814)" /><g
     id="g48"
     transform="translate(2.5,-26.690814)" /><g
     id="g50"
     transform="translate(2.5,-26.690814)" /><g
     id="g52"
     transform="translate(2.5,-26.690814)" /><g
     id="g54"
     transform="translate(2.5,-26.690814)" /><g
     id="g56"
     transform="translate(2.5,-26.690814)" /><g
     id="g58"
     transform="translate(2.5,-26.690814)" /><g
     id="g60"
     transform="translate(2.5,-26.690814)" /></svg>