<?xml version="1.0" encoding="iso-8859-1"?>
<!-- Generator: Adobe Illustrator 16.0.0, SVG Export Plug-In . SVG Version: 6.00 Build 0)  -->
<!DOCTYPE svg PUBLIC "-//W3C//DTD SVG 1.1//EN" "http://www.w3.org/Graphics/SVG/1.1/DTD/svg11.dtd">
<svg version="1.1" id="Capa_1" xmlns="http://www.w3.org/2000/svg" xmlns:xlink="http://www.w3.org/1999/xlink" x="0px" y="0px"
	 width="611.999px" height="611.999px" viewBox="0 0 611.999 611.999" style="enable-background:new 0 0 611.999 611.999;"
	 xml:space="preserve">
<g>
	<g>
		<path d="M52.875,491.655l506.211,0.529c0,0,0.003,0,0.007,0c2.145,0,4.149-1.052,5.37-2.814c1.222-1.767,1.496-4.016,0.738-6.023
			l-29.149-77.071c-0.96-2.54-3.392-4.222-6.108-4.222H83.114c-2.681,0-5.09,1.64-6.073,4.134l-30.233,76.542
			c-0.793,2.008-0.542,4.28,0.673,6.066C48.696,490.581,50.713,491.652,52.875,491.655z M87.555,415.113h437.877l24.206,64.005
			l-487.161-0.509L87.555,415.113z"/>
		<path d="M580.069,544.051c0,0-0.003,0-0.007,0c-61.713,0.062-472.583,0.258-547.616,0.075c-0.006,0-0.01,0-0.016,0
			c-3.601,0-6.523,2.915-6.53,6.513c-0.006,3.604,2.909,6.536,6.514,6.547c22.671,0.055,75.997,0.074,141.092,0.074
			c150.361,0,363.5-0.11,406.57-0.153c3.604-0.003,6.526-2.929,6.523-6.536C586.596,546.973,583.674,544.051,580.069,544.051z"/>
		<path d="M88.093,314.029c-0.059,7.33,2.07,13.157,6.321,17.323c5.975,5.845,13.709,5.756,14.378,5.775h389.991
			c0.242,0.014,0.601,0.023,1.052,0.023c3.304,0,11.711-0.614,17.807-6.354c2.896-2.729,6.334-7.705,6.281-15.936
			c-0.068-8.849-0.036-68.36-0.003-125.917c0.029-52.303,0.056-101.705,0.003-109.018c-0.068-8.019-3.421-12.668-6.223-15.159
			c-5.923-5.266-13.762-5.083-15.821-4.93L109.38,59.841c-0.895-0.023-9.194-0.084-15.309,5.802
			c-2.684,2.583-5.896,7.3-5.978,15.117c0,0.003,0,0.006,0,0.01c-0.065,7.231-0.033,57.576,0.003,110.872
			C88.136,247.527,88.171,305.315,88.093,314.029z M101.153,80.884c0.072-6.935,4.946-7.986,7.992-7.986c0.02,0,0.036,0,0.056,0
			h392.958c0.238,0,0.474-0.013,0.709-0.04c0.039,0,3.989-0.261,6.157,1.672c0.447,0.395,1.806,1.603,1.838,5.501
			c0.053,7.248,0.023,56.626-0.003,108.903c-0.032,57.583-0.065,117.125,0.003,126.018c0.02,2.847-0.682,4.91-2.148,6.312
			c-2.693,2.569-7.682,2.925-9.331,2.817c-0.14-0.01-0.283-0.013-0.428-0.013H108.603c-0.059,0-3.042-0.085-5.051-2.051
			c-1.619-1.587-2.426-4.241-2.396-7.882c0.078-8.769,0.039-66.59,0.003-122.505C101.124,138.365,101.087,88.057,101.153,80.884z"/>
		<path d="M609.953,530.126c-8.336-19.991-46.555-116.668-52.973-133.303c-1.349-3.483-3.429-6.493-6.154-8.962
			c11.502-7.61,12.863-21.124,13.023-35.561c0.095-9.132,0.02-82.442-0.092-146.666c0.111-64.26,0.187-137.563,0.092-146.672
			c-0.262-23.677-3.497-41.813-41.738-42.101H370.686c-7.803-0.022-32.388,0-64.671,0.062c-32.326-0.062-56.894-0.082-64.854-0.062
			H89.827c-38.169,0.288-41.396,18.424-41.64,42.091c-0.108,8.606-0.029,77.179,0.059,146.659
			c-0.088,69.496-0.167,138.068-0.059,146.688c0.147,14.179,1.43,27.477,12.39,35.149c-2.615,2.504-4.757,5.586-6.34,9.184
			C47.498,411.937,3.154,525.032,1.27,529.842c-0.082,0.206-0.153,0.418-0.212,0.633c-0.199,0.719-1.903,7.203-0.522,13.674
			l5.083,30.229c0.164,0.771,0.261,1.616,0.369,2.488c0.669,5.354,2.233,17.888,19.955,18.143
			c6.703,0.102,70.907,0.137,153.521,0.137c158.549,0,384.852-0.127,402.352-0.137c8.4,0.833,21.437-3.65,24.046-19.608
			l5.021-29.319l0.039-0.16C611.974,541.791,613.064,537.524,609.953,530.126z M598.268,542.689l-0.107,0.424
			c-0.043,0.167-0.078,0.337-0.107,0.503l-5.07,29.626c-1.414,8.642-7.546,8.972-10.001,8.756c-0.268-0.035-0.538-0.052-0.81-0.052
			l0,0c-5.364,0.006-536.47,0.307-556.037,0c-6.363-0.088-6.523-1.358-7.189-6.699c-0.157-1.251-0.317-2.456-0.5-3.298
			l-5.087-30.243c-0.607-2.844-0.091-6.16,0.215-7.482c2.893-7.382,46.169-117.706,52.614-132.336
			c2.236-5.087,5.972-7.931,11.417-8.698c3.18-0.45,5.563-3.144,5.616-6.354c0.055-3.212-2.233-5.987-5.397-6.542
			c-14.068-2.476-16.383-8.868-16.583-28.147c-0.108-8.55-0.029-77.067,0.059-146.538c-0.088-69.451-0.167-137.971-0.059-146.508
			c0.215-20.608,1.391-28.976,28.633-29.182h151.491c7.793-0.026,32.332,0,64.648,0.062c32.273-0.062,56.825-0.082,64.812-0.062
			h151.236c27.32,0.202,28.499,8.577,28.728,29.182c0.095,9.05,0.02,82.288-0.092,146.531c0.111,64.207,0.187,137.452,0.092,146.525
			c-0.222,20.072-2.654,26.239-18.336,28.43c-3.213,0.448-5.609,3.188-5.629,6.429c-0.02,3.242,2.345,6.011,5.554,6.494
			c6.566,0.996,10.745,3.692,12.413,8.012c6.433,16.668,44.762,113.628,53.11,133.646c0.003,0.006,0.007,0.013,0.007,0.02
			C599.326,538.546,599.101,539.421,598.268,542.689z"/>
		<path d="M119.906,250.495c3.604,0,6.53-2.925,6.53-6.53V100.31c0-3.604-2.925-6.53-6.53-6.53s-6.53,2.925-6.53,6.53v143.655
			C113.376,247.573,116.302,250.495,119.906,250.495z"/>
		<path d="M104.982,420.762c-3.343-1.378-7.153,0.216-8.524,3.552l-15.237,37.005c-1.375,3.333,0.215,7.15,3.549,8.524
			c0.816,0.336,1.655,0.493,2.484,0.493c2.57,0,5.002-1.524,6.04-4.045l15.237-37.005
			C109.906,425.95,108.316,422.133,104.982,420.762z"/>
	</g>
</g>
<g>
</g>
<g>
</g>
<g>
</g>
<g>
</g>
<g>
</g>
<g>
</g>
<g>
</g>
<g>
</g>
<g>
</g>
<g>
</g>
<g>
</g>
<g>
</g>
<g>
</g>
<g>
</g>
<g>
</g>
</svg>
