<?xml version="1.0" encoding="UTF-8" standalone="no"?>
<svg
   xmlns:dc="http://purl.org/dc/elements/1.1/"
   xmlns:cc="http://creativecommons.org/ns#"
   xmlns:rdf="http://www.w3.org/1999/02/22-rdf-syntax-ns#"
   xmlns:svg="http://www.w3.org/2000/svg"
   xmlns="http://www.w3.org/2000/svg"
   xmlns:sodipodi="http://sodipodi.sourceforge.net/DTD/sodipodi-0.dtd"
   xmlns:inkscape="http://www.inkscape.org/namespaces/inkscape"
   enable-background="new 0 0 500 500"
   height="448.10199"
   id="Layer_1"
   version="1.1"
   viewBox="0 0 448.10101 448.10199"
   width="448.10101"
   xml:space="preserve"
   sodipodi:docname="science.svg"
   inkscape:version="0.92.1 r15371"><metadata
     id="metadata9"><rdf:RDF><cc:Work
         rdf:about=""><dc:format>image/svg+xml</dc:format><dc:type
           rdf:resource="http://purl.org/dc/dcmitype/StillImage" /><dc:title></dc:title></cc:Work></rdf:RDF></metadata><defs
     id="defs7" /><sodipodi:namedview
     pagecolor="#ffffff"
     bordercolor="#666666"
     borderopacity="1"
     objecttolerance="10"
     gridtolerance="10"
     guidetolerance="10"
     inkscape:pageopacity="0"
     inkscape:pageshadow="2"
     inkscape:window-width="1366"
     inkscape:window-height="690"
     id="namedview5"
     showgrid="false"
     inkscape:zoom="0.472"
     inkscape:cx="-93.74661"
     inkscape:cy="221.93236"
     inkscape:window-x="0"
     inkscape:window-y="49"
     inkscape:window-maximized="1"
     inkscape:current-layer="Layer_1"
     fit-margin-top="0"
     fit-margin-left="0"
     fit-margin-right="0"
     fit-margin-bottom="0" /><path
     d="M 160.451,181.987 13.083,384.139 C 8.634,390.226 6,397.677 6,405.762 c 0,20.078 16.264,36.34 36.34,36.34 h 363.421 c 20.078,0 36.34,-16.262 36.34,-36.34 0,-8.085 -2.632,-15.536 -7.079,-21.623 L 287.649,181.987 V 51.426 h 4.543 c 12.537,0 22.711,-10.177 22.711,-22.713 C 314.903,16.177 304.729,6 292.192,6 H 155.908 c -12.536,0 -22.713,10.177 -22.713,22.713 0,12.537 10.177,22.713 22.713,22.713 h 4.543 z M 205.88,51.426 h 36.342 v 136.282 l 63.6,90.855 H 142.281 l 63.599,-90.855 z"
     id="path2"
     inkscape:connector-curvature="0"
     style="clip-rule:evenodd;fill:#f4f4f4;fill-opacity:1;fill-rule:evenodd;stroke:#000000;stroke-width:12;stroke-miterlimit:4;stroke-dasharray:none;stroke-opacity:1" /></svg>