<?xml version="1.0" encoding="UTF-8" standalone="no"?>
<!-- Generator: Adobe Illustrator 16.0.0, SVG Export Plug-In . SVG Version: 6.00 Build 0)  -->

<svg
   xmlns:dc="http://purl.org/dc/elements/1.1/"
   xmlns:cc="http://creativecommons.org/ns#"
   xmlns:rdf="http://www.w3.org/1999/02/22-rdf-syntax-ns#"
   xmlns:svg="http://www.w3.org/2000/svg"
   xmlns="http://www.w3.org/2000/svg"
   xmlns:sodipodi="http://sodipodi.sourceforge.net/DTD/sodipodi-0.dtd"
   xmlns:inkscape="http://www.inkscape.org/namespaces/inkscape"
   version="1.1"
   id="Capa_1"
   x="0px"
   y="0px"
   width="624"
   height="540.54413"
   viewBox="0 0 624 540.54413"
   xml:space="preserve"
   sodipodi:docname="travail.svg"
   inkscape:version="0.92.1 r15371"><metadata
     id="metadata47"><rdf:RDF><cc:Work
         rdf:about=""><dc:format>image/svg+xml</dc:format><dc:type
           rdf:resource="http://purl.org/dc/dcmitype/StillImage" /><dc:title></dc:title></cc:Work></rdf:RDF></metadata><defs
     id="defs45" /><sodipodi:namedview
     pagecolor="#ffffff"
     bordercolor="#666666"
     borderopacity="1"
     objecttolerance="10"
     gridtolerance="10"
     guidetolerance="10"
     inkscape:pageopacity="0"
     inkscape:pageshadow="2"
     inkscape:window-width="705"
     inkscape:window-height="480"
     id="namedview43"
     showgrid="false"
     fit-margin-top="0"
     fit-margin-left="0"
     fit-margin-right="0"
     fit-margin-bottom="0"
     inkscape:zoom="0.38562092"
     inkscape:cx="312"
     inkscape:cy="270.2721"
     inkscape:window-x="0"
     inkscape:window-y="49"
     inkscape:window-maximized="0"
     inkscape:current-layer="Capa_1" /><g
     id="g10"
     style="fill:#fdfdfd;fill-opacity:1;stroke:#000000;stroke-width:12;stroke-miterlimit:4;stroke-dasharray:none;stroke-opacity:1"
     transform="translate(6,-35.727943)"><g
       id="g8"
       style="fill:#fdfdfd;fill-opacity:1;stroke:#000000;stroke-width:12;stroke-miterlimit:4;stroke-dasharray:none;stroke-opacity:1"><path
         d="M 357.353,41.728 H 254.647 c 0,0 -32.102,0 -32.102,34.772 v 48.682 H 30.6 c 0,0 -30.6,0 -30.6,31.602 v 107.49 h 222.545 27.818 V 251.45 c 0,-8.374 6.732,-14.994 14.994,-14.994 h 81.257 c 8.401,0 15.022,6.732 15.022,14.994 v 12.824 H 389.453 612 v -107.49 c 0,-31.602 -30.6,-31.602 -30.6,-31.602 H 389.454 V 76.5 c 0,-34.772 -32.101,-34.772 -32.101,-34.772 z m 5.813,83.454 H 250.669 v -56.22 h 112.469 v 56.22 z"
         id="path2"
         style="fill:#fdfdfd;fill-opacity:1;stroke:#000000;stroke-width:12;stroke-miterlimit:4;stroke-dasharray:none;stroke-opacity:1"
         inkscape:connector-curvature="0" /><path
         d="m 0,539.367 c 0,30.905 30.6,30.905 30.6,30.905 h 550.8 c 0,0 30.6,0 30.6,-30.905 V 292.091 H 390.178 361.637 v 40.643 c 0,8.373 -6.704,14.994 -14.994,14.994 h -81.285 c -8.373,0 -14.994,-6.732 -14.994,-14.994 V 292.091 H 222.685 0 Z"
         id="path4"
         style="fill:#fdfdfd;fill-opacity:1;stroke:#000000;stroke-width:12;stroke-miterlimit:4;stroke-dasharray:none;stroke-opacity:1"
         inkscape:connector-curvature="0" /><rect
         x="278.18201"
         y="264.27301"
         width="55.637001"
         height="55.636002"
         id="rect6"
         style="fill:#fdfdfd;fill-opacity:1;stroke:#000000;stroke-width:12;stroke-miterlimit:4;stroke-dasharray:none;stroke-opacity:1" /></g></g><g
     id="g12"
     transform="translate(6,-35.727943)" /><g
     id="g14"
     transform="translate(6,-35.727943)" /><g
     id="g16"
     transform="translate(6,-35.727943)" /><g
     id="g18"
     transform="translate(6,-35.727943)" /><g
     id="g20"
     transform="translate(6,-35.727943)" /><g
     id="g22"
     transform="translate(6,-35.727943)" /><g
     id="g24"
     transform="translate(6,-35.727943)" /><g
     id="g26"
     transform="translate(6,-35.727943)" /><g
     id="g28"
     transform="translate(6,-35.727943)" /><g
     id="g30"
     transform="translate(6,-35.727943)" /><g
     id="g32"
     transform="translate(6,-35.727943)" /><g
     id="g34"
     transform="translate(6,-35.727943)" /><g
     id="g36"
     transform="translate(6,-35.727943)" /><g
     id="g38"
     transform="translate(6,-35.727943)" /><g
     id="g40"
     transform="translate(6,-35.727943)" /></svg>