<?xml version="1.0" encoding="UTF-8" standalone="no"?>
<svg
   xmlns:dc="http://purl.org/dc/elements/1.1/"
   xmlns:cc="http://creativecommons.org/ns#"
   xmlns:rdf="http://www.w3.org/1999/02/22-rdf-syntax-ns#"
   xmlns:svg="http://www.w3.org/2000/svg"
   xmlns="http://www.w3.org/2000/svg"
   viewBox="0 0 117.08 90.333336"
   height="90.333336"
   width="117.08"
   xml:space="preserve"
   id="svg2"
   version="1.1"><metadata
     id="metadata8"><rdf:RDF><cc:Work
         rdf:about=""><dc:format>image/svg+xml</dc:format><dc:type
           rdf:resource="http://purl.org/dc/dcmitype/StillImage" /></cc:Work></rdf:RDF></metadata><defs
     id="defs6"><clipPath
       id="clipPath20"
       clipPathUnits="userSpaceOnUse"><path
         id="path18"
         d="M 0,0 H 878 V 677.52 H 0 Z" /></clipPath></defs><g
     transform="matrix(1.3333333,0,0,-1.3333333,0,90.333333)"
     id="g10"><g
       transform="scale(0.1)"
       id="g12"><g
         id="g14"><g
           clip-path="url(#clipPath20)"
           id="g16"><path
             id="path22"
             style="fill:#fcd216;fill-opacity:1;fill-rule:nonzero;stroke:none"
             d="M 126.438,252.676 V 0 H 803.945 V 417.727 C 583.203,379.746 467.715,327.18 267.715,223.125 l -141.277,29.551" /><path
             id="path24"
             style="fill:#fcd216;fill-opacity:1;fill-rule:nonzero;stroke:none"
             d="M 803.945,677.52 H 126.438 V 380.336 c 225,81.656 464.621,133.414 677.507,150.148 V 677.52" /><path
             id="path26"
             style="fill:#706d6e;fill-opacity:1;fill-rule:nonzero;stroke:none"
             d="M 803.945,530.484 C 591.059,513.75 351.438,461.992 126.438,380.336 83.6836,364.824 41.3984,348.359 0,330.723 l 267.715,-65 c 216.543,112.656 351.113,163.918 610.363,203.886 v 65.489 c -24.25,-0.989 -49.07,-2.649 -74.133,-4.614" /></g></g></g></g></svg>